<svg xmlns="http://www.w3.org/2000/svg" viewBox="0 0 120 120" width="120" height="120"><g transform="translate(10 8)" stroke-linecap="round" stroke-linejoin="round"><g transform="translate(0 4.5)" opacity=".16"><g><path d="M6 54 Q50 10 94 54 Q50 96 6 54 Z" fill="#0B2D4F" stroke="#0B2D4F" stroke-width="18.2"/><path d="M27 33 L20 22 M50 25 V12 M73 33 L80 22" fill="none" stroke="#0B2D4F" stroke-width="24.2"/></g></g><g><path d="M6 54 Q50 10 94 54 Q50 96 6 54 Z" fill="#fff" stroke="#fff" stroke-width="18.2"/><path d="M27 33 L20 22 M50 25 V12 M73 33 L80 22" fill="none" stroke="#fff" stroke-width="24.2"/></g><g><path d="M6 54 Q50 10 94 54 Q50 96 6 54 Z" fill="#0B2D4F" stroke="#0B2D4F" stroke-width="7.2"/><path d="M27 33 L20 22 M50 25 V12 M73 33 L80 22" fill="none" stroke="#0B2D4F" stroke-width="13.2"/></g><g><path d="M6 54 Q50 10 94 54 Q50 96 6 54 Z" fill="#FFFFFF"/><circle cx="50" cy="54" r="20" fill="#3AA0F0"/><circle cx="50" cy="54" r="10" fill="#0B2D4F"/><circle cx="57.5" cy="46.5" r="5.5" fill="#fff"/><circle cx="43" cy="61" r="2.8" fill="#fff"/><path d="M6 54 Q50 10 94 54" fill="none" stroke="#0B2D4F" stroke-width="6.5"/><path d="M27 33 L20 22 M50 25 V12 M73 33 L80 22" fill="none" stroke="#0B2D4F" stroke-width="6"/></g></g></svg>