<svg xmlns="http://www.w3.org/2000/svg" viewBox="0 0 120 120" width="120" height="120"><g transform="translate(10 8)" stroke-linecap="round" stroke-linejoin="round"><g transform="translate(0 4.5)" opacity=".16"><g><path d="M8 90 Q8 54 28 54 Q48 54 48 90 Z" fill="#0B2D4F" stroke="#0B2D4F" stroke-width="18.2"/><circle cx="28" cy="36" r="13" fill="#0B2D4F" stroke="#0B2D4F" stroke-width="18.2"/><path d="M52 90 Q52 54 72 54 Q92 54 92 90 Z" fill="#0B2D4F" stroke="#0B2D4F" stroke-width="18.2"/><circle cx="72" cy="36" r="13" fill="#0B2D4F" stroke="#0B2D4F" stroke-width="18.2"/><path d="M34 92 Q34 66 50 66 Q66 66 66 92 Z" fill="#0B2D4F" stroke="#0B2D4F" stroke-width="18.2"/><circle cx="50" cy="54" r="11" fill="#0B2D4F" stroke="#0B2D4F" stroke-width="18.2"/><path d="M50 30 C44 24 36 20 38 13 C40 7 47 8 50 13 C53 8 60 7 62 13 C64 20 56 24 50 30 Z" fill="#0B2D4F" stroke="#0B2D4F" stroke-width="18.2"/></g></g><g><path d="M8 90 Q8 54 28 54 Q48 54 48 90 Z" fill="#fff" stroke="#fff" stroke-width="18.2"/><circle cx="28" cy="36" r="13" fill="#fff" stroke="#fff" stroke-width="18.2"/><path d="M52 90 Q52 54 72 54 Q92 54 92 90 Z" fill="#fff" stroke="#fff" stroke-width="18.2"/><circle cx="72" cy="36" r="13" fill="#fff" stroke="#fff" stroke-width="18.2"/><path d="M34 92 Q34 66 50 66 Q66 66 66 92 Z" fill="#fff" stroke="#fff" stroke-width="18.2"/><circle cx="50" cy="54" r="11" fill="#fff" stroke="#fff" stroke-width="18.2"/><path d="M50 30 C44 24 36 20 38 13 C40 7 47 8 50 13 C53 8 60 7 62 13 C64 20 56 24 50 30 Z" fill="#fff" stroke="#fff" stroke-width="18.2"/></g><g><path d="M8 90 Q8 54 28 54 Q48 54 48 90 Z" fill="#0B2D4F" stroke="#0B2D4F" stroke-width="7.2"/><circle cx="28" cy="36" r="13" fill="#0B2D4F" stroke="#0B2D4F" stroke-width="7.2"/><path d="M52 90 Q52 54 72 54 Q92 54 92 90 Z" fill="#0B2D4F" stroke="#0B2D4F" stroke-width="7.2"/><circle cx="72" cy="36" r="13" fill="#0B2D4F" stroke="#0B2D4F" stroke-width="7.2"/><path d="M34 92 Q34 66 50 66 Q66 66 66 92 Z" fill="#0B2D4F" stroke="#0B2D4F" stroke-width="7.2"/><circle cx="50" cy="54" r="11" fill="#0B2D4F" stroke="#0B2D4F" stroke-width="7.2"/><path d="M50 30 C44 24 36 20 38 13 C40 7 47 8 50 13 C53 8 60 7 62 13 C64 20 56 24 50 30 Z" fill="#0B2D4F" stroke="#0B2D4F" stroke-width="7.2"/></g><g><path d="M8 90 Q8 54 28 54 Q48 54 48 90 Z" fill="#FF7A6B"/><circle cx="28" cy="36" r="13" fill="#FFCFA8"/><path d="M52 90 Q52 54 72 54 Q92 54 92 90 Z" fill="#3D7BF0"/><circle cx="72" cy="36" r="13" fill="#FFCFA8"/><path d="M34 92 Q34 66 50 66 Q66 66 66 92 Z" fill="#FFC21A"/><circle cx="50" cy="54" r="11" fill="#FFCFA8"/><path d="M50 30 C44 24 36 20 38 13 C40 7 47 8 50 13 C53 8 60 7 62 13 C64 20 56 24 50 30 Z" fill="#FF5A7A"/></g></g></svg>